<svg width="713" height="106" viewBox="0 0 713 106" fill="none" xmlns="http://www.w3.org/2000/svg">
<path fill-rule="evenodd" clip-rule="evenodd" d="M37.3425 102.489C53.895 102.489 85.0898 88.9766 85.1157 52.533C85.0898 16.0906 53.895 2.57788 37.3425 2.57788H0V102.397H12.4773V102.489H37.3425ZM26.0565 50.6401C25.8214 48.9747 25.1457 46.3366 23.2822 43.0049C19.9822 37.1049 23.8239 28.7132 26.1572 25.2549C27.5322 23.5465 31.6822 20.1299 37.2822 20.1299C40.8383 20.1299 43.4737 20.6339 45.1691 21.1619C46.5429 21.5898 47.8819 22.1974 49.0547 23.0309C51.8142 24.9919 55.5588 29.5633 56.9072 38.1299C57.4294 41.4473 57.8077 44.0633 58.0776 46.1055C58.632 50.3002 58.632 54.9596 58.0776 59.1542C57.8077 61.1965 57.4294 63.8125 56.9072 67.1299C55.5588 75.6965 51.8142 80.2679 49.0547 82.2289C47.8819 83.0623 46.5429 83.67 45.1691 84.0978C43.4737 84.6258 40.8383 85.1299 37.2822 85.1299C31.6822 85.1299 27.5322 81.7132 26.1572 80.0049C23.8239 76.5465 19.9822 68.1549 23.2822 62.2549C25.1457 58.9232 25.8214 56.2851 26.0565 54.6196C26.242 53.3059 26.242 51.9539 26.0565 50.6401Z" fill="white"/>
<path d="M36 50.1286C35.5629 47.4418 34.634 44.8586 33.26 42.5086C32.4881 41.0977 32.0566 39.5259 32 37.9186C32 35.5386 28 35.5286 28 37.9186C28.0603 39.5349 28.4914 41.1156 29.26 42.5386C30.6355 44.8951 31.5644 47.4851 32 50.1786C32.088 50.8418 32.1348 51.5097 32.14 52.1786C32.1327 52.8309 32.086 53.4821 32 54.1286C31.552 56.8248 30.6095 59.415 29.22 61.7686C28.4712 63.183 28.054 64.7492 28 66.3486C28 68.7286 32 68.7186 32 66.3486C32.0551 64.738 32.4866 63.1626 33.26 61.7486C34.634 59.3987 35.5629 56.8155 36 54.1286C36.0959 53.4663 36.1427 52.7978 36.14 52.1286C36.1427 51.4594 36.0959 50.7909 36 50.1286Z" fill="white"/>
<path d="M222.639 52.5342C222.639 81.5483 198.57 105.067 168.876 105.067C139.186 105.067 115.116 81.5483 115.116 52.5342C115.116 23.52 139.186 0 168.876 0C198.57 0 222.639 23.52 222.639 52.5342ZM196.893 52.5342C196.893 37.4158 184.351 25.1589 168.876 25.1589C153.404 25.1589 140.862 37.4158 140.862 52.5342C140.862 67.6526 153.406 79.9097 168.876 79.9097C184.351 79.9097 196.893 67.6526 196.893 52.5342Z" fill="white"/>
<path d="M326.553 36.1099C326.553 65.0288 304.65 69.5955 293.568 69.5955H277.593V102.443H252.639V2.62402H293.568C304.65 2.62402 326.554 7.19068 326.553 36.1099ZM300.158 36.1111C300.158 26.5444 293.88 23.7231 287.566 23.7231H281.82C279.755 23.7231 278.307 25.7619 278.988 27.7121L280.885 33.1437C281.555 35.0647 281.555 37.1563 280.885 39.0773L278.988 44.5089C278.307 46.459 279.755 48.4978 281.82 48.4978H287.566C293.88 48.4978 300.156 45.6765 300.158 36.1111Z" fill="white"/>
<path d="M430.467 36.1099C430.467 65.0288 408.564 69.5955 397.482 69.5955H381.507V102.443H356.553V2.62402H397.482C408.564 2.62402 430.468 7.19068 430.467 36.1099ZM404.072 36.1111C404.072 26.5444 397.794 23.7231 391.48 23.7231H385.734C383.669 23.7231 382.221 25.7619 382.902 27.7121L384.799 33.1437C385.469 35.0647 385.469 37.1563 384.799 39.0773L382.902 44.5089C382.221 46.459 383.669 48.4978 385.734 48.4978H391.48C397.794 48.4978 404.07 45.6765 404.072 36.1111Z" fill="white"/>
<path d="M516.096 80.261V102.443H460.467V2.62402H485.421V80.261H516.096Z" fill="white"/>
<path d="M571.051 80.261H601.726V102.443H546.096V2.62402H571.051V2.81128H601.726V24.9934H571.051V80.261Z" fill="white"/>
<path d="M576.685 52.6179C576.685 45.1738 582.532 39.1396 589.745 39.1396C596.957 39.1396 602.804 45.1738 602.804 52.6179C602.804 60.062 596.957 66.0959 589.745 66.0959C582.532 66.0959 576.685 60.062 576.685 52.6179Z" fill="white"/>
<path d="M712.946 102.443H682.446L660.344 66.5063H657.759V102.443H632.804V2.62402H672.419C682.993 2.62402 703.884 6.98046 703.884 34.5659C703.884 53.1694 694.381 61.2012 684.95 64.4629L712.946 102.443ZM678.706 34.5659C678.706 25.4414 672.717 22.7498 666.695 22.7498H661.853C659.825 22.7498 658.382 24.7198 658.992 26.6534L660.635 31.8551C661.193 33.6193 661.193 35.5125 660.635 37.2768L658.992 42.4785C658.382 44.4121 659.825 46.3821 661.853 46.3821H666.695C672.717 46.3821 678.706 43.6907 678.706 34.5659Z" fill="white"/>
</svg>
