<svg width="226" height="640" viewBox="0 0 226 640" fill="none" xmlns="http://www.w3.org/2000/svg">
<g style="mix-blend-mode:soft-light" opacity="0.5">
<path d="M68.894 471.512C68.894 349.453 123.825 325.776 225.841 325.776C227.758 444.103 174.552 471.512 68.894 471.512Z" fill="#99BF88"/>
<path d="M102.525 0.671631C131.078 88.7748 60.587 139.715 5.83407 146.408C-34.9046 85.8943 -6.77742 15.5595 102.525 0.671631Z" fill="#99BF88"/>
<path d="M46.4731 292.145C148.69 292.145 192.21 280.508 192.21 146.408C89.9924 146.408 46.4731 158.045 46.4731 292.145Z" fill="#99BF88"/>
<path d="M146.436 399.777C143.959 394.094 137.344 391.493 131.683 393.97C97.1435 409.003 76.0228 438.016 59.9355 464.674C44.8467 480.795 28.3663 499.236 12.8406 521.568V370.619C12.8406 355.407 29.668 326.92 54.7112 299.747C55.978 298.367 57.7377 296.406 59.9243 293.973C72.2225 280.218 97.8162 251.631 120.652 233.705C125.528 229.882 126.369 222.831 122.557 217.966C118.723 213.09 111.683 212.249 106.818 216.06C82.424 235.208 55.9455 264.793 43.2105 279.018L38.2333 284.544C33.0988 290.115 22.6615 301.988 12.8419 316.247V191.341C13.1451 150.826 20.1516 126.018 39.5787 96.5226C42.9871 91.3545 41.5631 84.4041 36.3949 80.9957C31.2155 77.576 24.2652 79.0113 20.8568 84.1907C-0.981476 117.34 -9.23232 146.331 -9.57927 191.162C-9.57927 191.184 -9.56804 191.195 -9.56804 191.207C-9.56804 191.218 -9.57927 191.24 -9.57927 191.252V270.173C-20.8791 254.052 -32.6843 241.99 -34.9707 239.703L-79.813 191.117C-84.0051 186.576 -91.0903 186.286 -95.6531 190.489C-100.205 194.681 -100.484 201.778 -96.2921 206.329L-51.1366 255.229C-39.5785 266.787 -9.57927 301.999 -9.57927 325.777V468.195C-19.7471 455.449 -29.3658 446.357 -37.2359 438.981C-40.4422 435.977 -43.2677 433.308 -45.7002 430.752C-76.1924 383.309 -106.864 352.929 -139.431 338.008C-145.047 335.441 -151.718 337.884 -154.296 343.523C-156.875 349.15 -154.409 355.81 -148.77 358.388C-119.981 371.583 -92.2135 399.565 -63.8729 443.924C-63.5809 444.361 -63.2115 444.709 -62.8757 445.101C-62.7634 445.247 -62.7297 445.416 -62.5949 445.549C-59.7806 448.565 -56.3847 451.748 -52.5731 455.336C-40.8241 466.345 -24.894 481.401 -9.58052 508.205V628.46C-9.58052 634.648 -4.55838 639.67 1.62941 639.67C7.81721 639.67 12.8394 634.648 12.8394 628.46V564.135C32.2564 528.362 56.1228 501.524 77.0749 479.182C77.1985 479.047 77.2322 478.878 77.3445 478.734C77.7476 478.274 78.1744 477.825 78.4989 477.287C92.8489 453.375 111.435 427.232 140.628 414.53C146.301 412.053 148.902 405.45 146.436 399.777Z" fill="#36735C"/>
<path d="M192.21 639.67H-188.948C-195.136 639.67 -200.158 634.648 -200.158 628.46C-200.158 622.272 -195.136 617.25 -188.948 617.25H192.21C198.398 617.25 203.42 622.272 203.42 628.46C203.42 634.648 198.398 639.67 192.21 639.67Z" fill="#15403B"/>
</g>
</svg>
